# xmcd
#
# Track frame offsets:
#	150
#	71580
#	122807
#	127475
#	172935
#	178037
#	183107
#
# Disc length: 2670 seconds
#
# Revision: 1
# Processed by: cddbd v1.5.1PL0 Copyright (c) Steve Scherf et al.
# Submitted via: CDex 1.50Beta5
#
DISCID=620a6c07
DTITLE=白井誓海 - 浄土真宗
DYEAR=1900
DGENRE=Religious
TTITLE0=正信偈
TTITLE1=念仏和讃六首
TTITLE2=回向
TTITLE3=讃仏偈
TTITLE4=短念仏
TTITLE5=回向
TTITLE6=御文章・白骨章
EXTD=
EXTT0=
EXTT1=
EXTT2=
EXTT3=
EXTT4=
EXTT5=
EXTT6=
PLAYORDER=
